# xmcd CD database file generated by Grip 3.3.1
# 
# Track frame offsets:
#       182
#       18152
#       39602
#       58542
#       77550
#       95927
#       114752
#       141200
#       159460
#       186375
# 
# Disc length: 2732 seconds
# 
# Revision: 6
# Processed by: cddbd v1.5.2PL0 Copyright (c) Steve Scherf et al.
# Submitted via: Grip 3.3.1
# 
DISCID=7d0aaa0a
DTITLE=John Hiatt - Bring The Family
DYEAR=1987
DGENRE=Rock
TTITLE0=Memphis In The Meantime
TTITLE1=Alone In The Dark
TTITLE2=Thing Called Love
TTITLE3=Lipstick Sunset
TTITLE4=Have A Litte Faith In Me
TTITLE5=Thank You Girl
TTITLE6=Tip Of My Tongue
TTITLE7=Your Dad Did
TTITLE8=Stood Up
TTITLE9=Learning How To Love You
EXTD=YEAR: 1987
EXTT0=
EXTT1=
EXTT2=
EXTT3=
EXTT4=
EXTT5=
EXTT6=
EXTT7=
EXTT8=
EXTT9=
PLAYORDER=
